<svg width="500" height="500" viewBox="0 0 500 500" fill="none" xmlns="http://www.w3.org/2000/svg">
<g style="mix-blend-mode:color-dodge">
<rect width="500" height="500" rx="50" transform="matrix(-1 0 0 1 500 0)" fill="#4C87AF"/>
</g>
<g filter="url(#filter0_d)">
<path d="M427 328.109V74.1406C427 64.0877 418.521 56 407.982 56H148.071C106.074 56 72 88.502 72 128.562V370.438C72 410.498 106.074 443 148.071 443H407.982C418.521 443 427 434.912 427 424.859V412.766C427 407.097 424.227 401.957 419.948 398.631C416.619 386.991 416.619 353.809 419.948 342.168C424.227 338.918 427 333.778 427 328.109ZM173.429 157.285C173.429 154.791 175.568 152.75 178.183 152.75H346.174C348.789 152.75 350.929 154.791 350.929 157.285V172.402C350.929 174.897 348.789 176.938 346.174 176.938H178.183C175.568 176.938 173.429 174.897 173.429 172.402V157.285ZM173.429 205.66C173.429 203.166 175.568 201.125 178.183 201.125H346.174C348.789 201.125 350.929 203.166 350.929 205.66V220.777C350.929 223.272 348.789 225.312 346.174 225.312H178.183C175.568 225.312 173.429 223.272 173.429 220.777V205.66ZM374.225 394.625H148.071C134.046 394.625 122.714 383.816 122.714 370.438C122.714 357.134 134.125 346.25 148.071 346.25H374.225C372.72 359.175 372.72 381.7 374.225 394.625Z" fill="#4C87AF"/>
<path d="M439.5 328.109V74.1406C439.5 56.6344 424.862 43.5 407.982 43.5H148.071C99.733 43.5 59.5 81.0487 59.5 128.562V370.438C59.5 417.951 99.733 455.5 148.071 455.5H407.982C424.862 455.5 439.5 442.366 439.5 424.859V412.766C439.5 404.767 436.32 397.533 431.318 392.149C430.511 387.279 429.951 379.317 429.951 370.4C429.951 361.509 430.507 353.568 431.311 348.693C436.348 343.317 439.5 336.065 439.5 328.109ZM360.814 358.75C360.524 366.299 360.524 374.576 360.814 382.125H148.071C140.386 382.125 135.214 376.363 135.214 370.438C135.214 364.588 140.466 358.75 148.071 358.75H360.814Z" stroke="black" stroke-width="25"/>
</g>
<g filter="url(#filter1_bd)">
<path d="M250.414 316.1C245.72 316.1 241.247 315.367 236.994 313.9C232.74 312.433 229.037 310.38 225.884 307.74C222.73 305.1 220.42 302.057 218.954 298.61C218.22 297.07 218.22 295.64 218.954 294.32C219.76 293 221.08 292.157 222.914 291.79C224.234 291.497 225.517 291.717 226.764 292.45C228.084 293.11 229.074 294.137 229.734 295.53C230.614 297.363 232.044 299.05 234.024 300.59C236.077 302.13 238.534 303.377 241.394 304.33C244.254 305.283 247.26 305.76 250.414 305.76C253.934 305.76 257.16 305.21 260.094 304.11C263.1 303.01 265.52 301.433 267.354 299.38C269.187 297.253 270.104 294.65 270.104 291.57C270.104 287.683 268.564 284.2 265.484 281.12C262.477 278.04 257.49 276.133 250.524 275.4C241.43 274.52 234.28 271.843 229.074 267.37C223.867 262.897 221.264 257.36 221.264 250.76C221.264 245.92 222.62 241.813 225.334 238.44C228.047 235.067 231.714 232.5 236.334 230.74C241.027 228.98 246.234 228.1 251.954 228.1C258.627 228.1 264.09 229.457 268.344 232.17C272.597 234.883 276.117 238.477 278.904 242.95C279.93 244.563 280.334 246.103 280.114 247.57C279.967 248.963 279.27 250.063 278.024 250.87C276.63 251.75 275.127 251.933 273.514 251.42C271.9 250.907 270.69 249.953 269.884 248.56C268.05 245.407 265.667 242.95 262.734 241.19C259.874 239.43 256.17 238.513 251.624 238.44C246.197 238.367 241.65 239.393 237.984 241.52C234.317 243.573 232.484 246.763 232.484 251.09C232.484 253.29 233.034 255.417 234.134 257.47C235.307 259.45 237.397 261.173 240.404 262.64C243.484 264.107 247.884 265.133 253.604 265.72C262.33 266.6 269.114 269.277 273.954 273.75C278.867 278.15 281.324 283.98 281.324 291.24C281.324 295.42 280.444 299.05 278.684 302.13C276.997 305.21 274.687 307.813 271.754 309.94C268.894 311.993 265.594 313.533 261.854 314.56C258.187 315.587 254.374 316.1 250.414 316.1Z" fill="#E5E5E5"/>
</g>
<defs>
<filter id="filter0_d" x="47" y="31" width="415" height="447" filterUnits="userSpaceOnUse" color-interpolation-filters="sRGB">
<feFlood flood-opacity="0" result="BackgroundImageFix"/>
<feColorMatrix in="SourceAlpha" type="matrix" values="0 0 0 0 0 0 0 0 0 0 0 0 0 0 0 0 0 0 127 0"/>
<feOffset dx="6" dy="6"/>
<feGaussianBlur stdDeviation="2"/>
<feColorMatrix type="matrix" values="0 0 0 0 0 0 0 0 0 0 0 0 0 0 0 0 0 0 0.25 0"/>
<feBlend mode="normal" in2="BackgroundImageFix" result="effect1_dropShadow"/>
<feBlend mode="normal" in="SourceGraphic" in2="effect1_dropShadow" result="shape"/>
</filter>
<filter id="filter1_bd" x="208.404" y="218.1" width="82.92" height="108" filterUnits="userSpaceOnUse" color-interpolation-filters="sRGB">
<feFlood flood-opacity="0" result="BackgroundImageFix"/>
<feGaussianBlur in="BackgroundImage" stdDeviation="5"/>
<feComposite in2="SourceAlpha" operator="in" result="effect1_backgroundBlur"/>
<feColorMatrix in="SourceAlpha" type="matrix" values="0 0 0 0 0 0 0 0 0 0 0 0 0 0 0 0 0 0 127 0"/>
<feOffset dx="4" dy="4"/>
<feGaussianBlur stdDeviation="2"/>
<feColorMatrix type="matrix" values="0 0 0 0 0 0 0 0 0 0 0 0 0 0 0 0 0 0 0.25 0"/>
<feBlend mode="normal" in2="effect1_backgroundBlur" result="effect2_dropShadow"/>
<feBlend mode="normal" in="SourceGraphic" in2="effect2_dropShadow" result="shape"/>
</filter>
</defs>
</svg>
